<svg xmlns:xlink="http://www.w3.org/1999/xlink" xmlns="http://www.w3.org/2000/svg" class="icon icon-great-place-to-work-mono" style="width: 19px; height: 32px" width="19"  height="32" ><defs><symbol viewBox="0 0 19 32" id="icon-great-place-to-work-mono" xmlns="http://www.w3.org/2000/svg"><g clip-path="url(#dla)"><path fill-rule="evenodd" clip-rule="evenodd" d="m1 26.348 8.4 4.517 8.4-4.517V1H1v25.348ZM18.8 0v26.946L9.4 32 0 26.946V0h18.8Z"></path><path d="M17.736 28.596h-.184v.401h-.168v-.401h-.182v-.162h.534v.162Zm.747.401h-.169v-.232l-.127.226h-.075l-.127-.226v.232h-.168v-.563h.143l.19.34.19-.34h.143v.563Z"></path><path fill-rule="evenodd" clip-rule="evenodd" d="M0 0h18.8v18.768H0V0Zm4.975 3.564v-.232H3.463v.525h.912c-.108.356-.418.571-.878.571-.31 0-.56-.09-.749-.275a.95.95 0 0 1-.28-.705.958.958 0 0 1 .986-.992c.357 0 .667.172.81.417l.507-.293c-.258-.425-.749-.7-1.313-.7-.447 0-.822.15-1.127.455a1.529 1.529 0 0 0-.452 1.113c0 .434.15.804.456 1.109.306.3.693.45 1.158.45.435 0 .792-.133 1.067-.399.276-.266.414-.614.414-1.044Zm.889-.395c.098-.275.343-.413.621-.413v.62a.59.59 0 0 0-.433.102c-.127.09-.188.237-.188.443v1.027h-.528V2.799h.528v.37Zm2.12 1.336c-.332 0-.535-.133-.608-.404H9c.013-.081.021-.154.021-.228 0-.322-.103-.588-.31-.807a1.015 1.015 0 0 0-.779-.327 1.104 1.104 0 0 0-1.136 1.134c0 .327.108.598.323.812.215.215.5.323.856.323.414 0 .728-.155.939-.46l-.448-.258c-.108.142-.271.215-.482.215Zm-.052-1.267a.52.52 0 0 1 .533.433H7.368c.064-.275.267-.433.564-.433Zm3.09-.439h.555v2.149h-.555v-.254c-.168.21-.4.314-.702.314a.959.959 0 0 1-.74-.327 1.15 1.15 0 0 1-.305-.808c0-.318.103-.584.305-.803a.982.982 0 0 1 .74-.331c.289 0 .534.103.702.313V2.8Zm-.598 1.68a.578.578 0 0 0 .598-.606.576.576 0 0 0-.172-.433.565.565 0 0 0-.426-.172.565.565 0 0 0-.426.172.589.589 0 0 0-.168.433c0 .177.056.323.168.439a.578.578 0 0 0 .426.167Zm2.487-1.147h.487V2.8h-.487v-.601l-.555.167V2.8h-.374v.533h.374v.894c0 .588.28.807 1.042.721v-.502c-.319.017-.487.013-.487-.22v-.893ZM3.4 5.717c.288 0 .533.1.731.293a.965.965 0 0 1 .297.717.965.965 0 0 1-.297.718 1.01 1.01 0 0 1-.731.292h-.53v.988h-.593V5.717H3.4Zm0 1.466c.254 0 .439-.198.439-.456 0-.257-.185-.455-.44-.455H2.87v.91h.53Zm1.433-1.438h.555v2.98h-.555v-2.98Zm2.785.832h.555v2.148h-.555V8.47c-.168.21-.4.314-.702.314a.96.96 0 0 1-.74-.327 1.15 1.15 0 0 1-.306-.807c0-.318.103-.585.306-.804a.983.983 0 0 1 .74-.33c.288 0 .534.102.702.313v-.253Zm-.599 1.68a.578.578 0 0 0 .599-.606.576.576 0 0 0-.173-.434.565.565 0 0 0-.426-.172.565.565 0 0 0-.426.172.589.589 0 0 0-.167.434c0 .176.056.322.167.438a.578.578 0 0 0 .426.168Zm1.632-.606c0 .322.107.589.323.808.22.219.49.327.813.327.417 0 .783-.22.973-.56l-.482-.274c-.087.176-.272.283-.495.283a.562.562 0 0 1-.414-.163.587.587 0 0 1-.163-.42c0-.345.245-.59.577-.59.22 0 .404.112.49.288l.478-.279c-.176-.34-.547-.554-.964-.554-.323 0-.594.107-.813.326-.216.22-.323.486-.323.808Zm2.995.228c.073.27.275.404.607.404.21 0 .374-.073.482-.215l.447.257c-.21.305-.525.46-.938.46-.357 0-.641-.107-.856-.322a1.1 1.1 0 0 1-.323-.812A1.103 1.103 0 0 1 12.2 6.517c.314 0 .577.107.779.326.207.22.31.486.31.808 0 .073-.009.146-.022.228h-1.622Zm1.089-.43a.52.52 0 0 0-.534-.434c-.297 0-.499.159-.564.434h1.098Zm-8.638 2.735v-.539H1.88v.54h.81v2.317h.593v-2.318h.814Zm.925 2.379c-.318 0-.59-.108-.81-.327-.219-.22-.326-.49-.326-.808 0-.318.107-.584.327-.803.22-.22.49-.331.809-.331.318 0 .59.111.809.33.22.22.331.486.331.804a1.1 1.1 0 0 1-.331.808c-.22.219-.49.327-.81.327Zm0-.542a.577.577 0 0 0 .585-.593.577.577 0 0 0-.585-.593.565.565 0 0 0-.581.593.565.565 0 0 0 .581.593Zm-3.06 1.427.843 3.008h.676l.564-1.985.568 1.985h.676l.843-3.008h-.624l-.577 2.23-.632-2.23H3.79l-.629 2.23-.576-2.23h-.624Zm5.255 3.068c-.318 0-.59-.108-.81-.327-.219-.219-.326-.49-.326-.807 0-.318.107-.585.327-.804.22-.22.49-.33.809-.33.318 0 .59.11.809.33.22.22.331.486.331.804a1.1 1.1 0 0 1-.331.807c-.22.22-.49.327-.81.327Zm0-.542a.576.576 0 0 0 .585-.593.576.576 0 0 0-.585-.592.565.565 0 0 0-.581.593.565.565 0 0 0 .581.593Zm2.741-1.71c-.292 0-.55.138-.654.413v-.37h-.555v2.149h.555v-1.027c0-.206.065-.353.198-.443a.647.647 0 0 1 .456-.103v-.619Zm2.393 2.192h-.645l-.784-.976v.976h-.555v-3.008h.555v1.805l.74-.946h.663l-.864 1.062.89 1.087Zm.69-.873a.484.484 0 0 0-.487.485c0 .274.215.482.487.482a.482.482 0 0 0 .486-.484.482.482 0 0 0-.486-.483Zm0 .079c.232 0 .399.166.399.404a.39.39 0 0 1-.4.405.39.39 0 0 1-.398-.403c0-.238.167-.407.399-.407Zm.002.16h-.17v.478h.106v-.186h.05l.117.186h.11l-.128-.203c.057-.018.099-.057.099-.13v-.001c0-.099-.072-.145-.184-.145Zm.08.15c0 .046-.028.07-.082.07h-.062v-.14h.062c.052 0 .083.018.083.068v.002Z"></path><path d="M2.055 21.734c0-.761.565-1.352 1.354-1.352.476 0 .896.242 1.12.613l-.443.256c-.127-.23-.38-.371-.677-.371-.51 0-.844.352-.844.854 0 .501.334.85.844.85.297 0 .554-.141.677-.368l.442.256c-.22.372-.64.613-1.12.613-.788 0-1.353-.594-1.353-1.351ZM5.659 22.65a.516.516 0 0 0 .416-.185l.387.223c-.175.252-.454.397-.81.397-.626 0-1.02-.427-1.02-.98 0-.553.398-.98.982-.98.55 0 .941.434.941.98 0 .07-.007.134-.018.197H5.135c.066.245.27.349.524.349Zm.416-.72a.451.451 0 0 0-.46-.375c-.257 0-.432.138-.488.375h.948ZM7.842 21.14v.534c-.25-.03-.565.082-.565.472v.887h-.48v-1.857h.48v.32c.096-.253.33-.356.565-.356ZM8.872 21.637v.772c0 .201.145.204.42.19v.434c-.673.075-.9-.122-.9-.624v-.772h-.324v-.46h.324v-.375l.48-.145v.52h.42v.46h-.42ZM9.593 20.66a.3.3 0 0 1 .294-.296c.16 0 .298.137.298.297 0 .16-.134.293-.298.293a.294.294 0 0 1-.294-.293Zm.056.517h.48v1.856h-.48v-1.856ZM11.181 21.158v.019h.395v.46h-.395v1.396h-.48v-1.396h-.267v-.46h.268v-.019c0-.512.282-.813.874-.776v.46c-.25-.018-.395.064-.395.316ZM11.821 20.66a.3.3 0 0 1 .294-.296c.16 0 .297.137.297.297 0 .16-.134.293-.297.293a.294.294 0 0 1-.294-.293Zm.056.517h.48v1.856h-.48v-1.856ZM13.68 22.65a.515.515 0 0 0 .417-.185l.386.223c-.174.252-.453.397-.81.397-.625 0-1.02-.427-1.02-.98 0-.553.399-.98.983-.98.55 0 .94.434.94.98 0 .07-.007.134-.018.197h-1.402c.067.245.271.349.524.349Zm.417-.72a.451.451 0 0 0-.461-.375c-.257 0-.432.138-.487.375h.948ZM16.745 20.434v2.6h-.48v-.22c-.134.17-.33.271-.603.271-.498 0-.907-.427-.907-.98 0-.553.41-.98.907-.98.272 0 .47.1.603.27v-.961h.48Zm-.48 1.67a.499.499 0 0 0-.513-.523.502.502 0 0 0-.517.524.5.5 0 0 0 .517.523c.297 0 .513-.211.513-.523ZM7.78 27.657h.238v.637c0 .101.003.166.01.197.01.048.034.086.072.116a.257.257 0 0 0 .157.043c.067 0 .118-.014.153-.04a.165.165 0 0 0 .061-.103c.007-.04.01-.106.01-.2v-.65h.239v.618c0 .14-.007.24-.02.299a.329.329 0 0 1-.21.244.61.61 0 0 1-.226.035.662.662 0 0 1-.256-.039.373.373 0 0 1-.137-.1.327.327 0 0 1-.067-.131 1.426 1.426 0 0 1-.023-.299v-.627ZM8.91 28.45l.232-.022a.283.283 0 0 0 .085.17c.042.037.1.055.172.055.077 0 .134-.016.173-.048a.145.145 0 0 0 .059-.114.104.104 0 0 0-.025-.07.19.19 0 0 0-.086-.052 2.888 2.888 0 0 0-.19-.05.647.647 0 0 1-.268-.117.306.306 0 0 1-.058-.404.321.321 0 0 1 .147-.12.592.592 0 0 1 .232-.04c.148 0 .259.032.333.096a.342.342 0 0 1 .119.26l-.238.01c-.01-.06-.032-.104-.066-.13-.033-.027-.083-.04-.15-.04a.272.272 0 0 0-.163.042.086.086 0 0 0-.037.073.09.09 0 0 0 .035.072c.03.025.103.05.219.078.115.027.2.056.256.085a.323.323 0 0 1 .177.306.346.346 0 0 1-.215.321.674.674 0 0 1-.256.043c-.15 0-.263-.034-.343-.103a.45.45 0 0 1-.143-.3ZM11.13 28.833h-.259l-.102-.267h-.471l-.097.267h-.252l.458-1.176h.252l.471 1.176Zm-.438-.465-.162-.436-.159.436h.321ZM16.267 25.668l.225-.023c.007.05.026.09.057.12a.156.156 0 0 0 .23-.012c.032-.039.049-.096.049-.173 0-.073-.017-.127-.05-.162a.16.16 0 0 0-.126-.055.23.23 0 0 0-.174.086l-.183-.027.115-.611h.598v.21h-.426l-.036.2a.341.341 0 0 1 .155-.037c.1 0 .185.036.255.109.07.072.104.167.104.283a.423.423 0 0 1-.084.258.375.375 0 0 1-.32.156.397.397 0 0 1-.266-.087.36.36 0 0 1-.123-.235ZM16.11 25.76v.21h-.791a.54.54 0 0 1 .077-.224c.043-.072.127-.166.254-.283.102-.094.164-.158.187-.192a.247.247 0 0 0 .047-.138c0-.05-.014-.089-.041-.115a.15.15 0 0 0-.112-.041.15.15 0 0 0-.112.042c-.028.029-.044.076-.049.141l-.225-.022c.014-.124.056-.213.126-.267a.425.425 0 0 1 .266-.081c.116 0 .207.031.274.094.066.062.1.14.1.233 0 .053-.01.104-.03.152a.608.608 0 0 1-.09.15 1.464 1.464 0 0 1-.147.15 2.573 2.573 0 0 0-.136.13.4.4 0 0 0-.046.062h.449ZM14.813 24.79c.114 0 .203.04.268.122.076.096.115.256.115.478 0 .223-.039.383-.116.48a.322.322 0 0 1-.267.12.338.338 0 0 1-.277-.131c-.07-.089-.106-.246-.106-.471 0-.221.039-.38.116-.478a.322.322 0 0 1 .267-.12Zm0 .187a.112.112 0 0 0-.073.026c-.022.017-.038.048-.05.093a1.287 1.287 0 0 0-.023.294c0 .138.007.233.02.285.014.051.032.085.053.103a.114.114 0 0 0 .073.025.114.114 0 0 0 .073-.025.178.178 0 0 0 .05-.094 1.27 1.27 0 0 0 .023-.294c0-.137-.007-.232-.02-.283-.014-.052-.032-.087-.054-.104a.109.109 0 0 0-.072-.026ZM14.278 25.76v.21h-.792a.54.54 0 0 1 .077-.224c.043-.072.127-.166.254-.283.102-.094.164-.158.187-.192a.247.247 0 0 0 .047-.138c0-.05-.014-.089-.041-.115a.15.15 0 0 0-.112-.041.15.15 0 0 0-.112.042c-.028.029-.044.076-.049.141l-.225-.022c.014-.124.056-.213.127-.267a.424.424 0 0 1 .265-.081c.116 0 .207.031.274.094.066.062.1.14.1.233 0 .053-.01.104-.03.152a.609.609 0 0 1-.09.15 1.443 1.443 0 0 1-.147.15 2.573 2.573 0 0 0-.136.13.407.407 0 0 0-.046.062h.449ZM11.919 25.97v-1.175h.231l.483.784v-.784h.22v1.175h-.238l-.475-.767v.767h-.221ZM11.79 25.97h-.26l-.102-.267h-.471l-.098.267h-.252l.459-1.175h.252l.472 1.175Zm-.439-.465-.162-.436-.16.436h.322ZM10.236 24.795h.237v.744a.76.76 0 0 1-.026.224.32.32 0 0 1-.125.165.42.42 0 0 1-.24.062c-.116 0-.206-.032-.269-.097-.062-.065-.094-.16-.094-.286l.224-.026a.312.312 0 0 0 .03.143.128.128 0 0 0 .117.063c.053 0 .09-.015.113-.045.022-.03.033-.093.033-.188v-.76ZM9.235 25.657v-.226h.443v.226h-.443ZM8.739 25.97v-.236h-.483v-.198l.511-.746h.19v.745h.147v.198h-.147v.237H8.74Zm0-.434v-.402l-.271.401h.27ZM8.142 25.76v.21H7.35a.54.54 0 0 1 .077-.224 1.49 1.49 0 0 1 .254-.283c.102-.094.165-.158.188-.192a.247.247 0 0 0 .046-.138c0-.05-.013-.089-.04-.115a.15.15 0 0 0-.112-.041.15.15 0 0 0-.113.042c-.028.029-.044.076-.048.141l-.225-.022c.013-.124.055-.213.126-.267a.424.424 0 0 1 .265-.081c.117 0 .208.031.274.094.067.062.1.14.1.233 0 .053-.01.104-.029.152a.608.608 0 0 1-.09.15 1.45 1.45 0 0 1-.148.15 2.572 2.572 0 0 0-.136.13.403.403 0 0 0-.046.062h.449ZM6.844 24.79c.115 0 .204.04.268.122.077.096.115.256.115.478 0 .223-.038.383-.116.48a.322.322 0 0 1-.267.12.338.338 0 0 1-.277-.131c-.07-.089-.105-.246-.105-.471 0-.221.038-.38.116-.478a.322.322 0 0 1 .266-.12Zm0 .187a.112.112 0 0 0-.073.026c-.021.017-.038.048-.05.093a1.285 1.285 0 0 0-.023.294c0 .138.007.233.021.285.014.051.031.085.052.103a.114.114 0 0 0 .073.025.114.114 0 0 0 .074-.025.177.177 0 0 0 .05-.094c.015-.058.023-.156.023-.294 0-.137-.007-.232-.021-.283-.014-.052-.032-.087-.053-.104a.109.109 0 0 0-.073-.026ZM6.31 25.76v.21h-.793a.54.54 0 0 1 .077-.224 1.49 1.49 0 0 1 .254-.283c.102-.094.165-.158.188-.192a.248.248 0 0 0 .046-.138c0-.05-.013-.089-.04-.115a.15.15 0 0 0-.112-.041.15.15 0 0 0-.113.042c-.028.029-.044.076-.048.141l-.225-.022c.013-.124.055-.213.126-.267a.425.425 0 0 1 .265-.081c.117 0 .208.031.274.094.067.062.1.14.1.233 0 .053-.01.104-.029.152a.608.608 0 0 1-.09.15 1.449 1.449 0 0 1-.148.15 2.57 2.57 0 0 0-.136.13.403.403 0 0 0-.046.062h.45ZM3.95 25.97v-1.175h.232l.482.784v-.784h.221v1.175h-.238l-.476-.767v.767h-.22ZM3.82 25.97h-.258l-.103-.267h-.471l-.097.267h-.253l.46-1.175h.251l.472 1.175Zm-.437-.465-.163-.436-.159.436h.322ZM2.267 24.795h.237v.744a.757.757 0 0 1-.026.224.32.32 0 0 1-.125.165.42.42 0 0 1-.24.062c-.116 0-.205-.032-.268-.097-.063-.065-.094-.16-.095-.286l.224-.026a.312.312 0 0 0 .03.143.128.128 0 0 0 .117.063c.053 0 .091-.015.113-.045.022-.03.033-.093.033-.188v-.76Z"></path></g><defs><clipPath id="dla"><path d="M0 0h18.8v32H0z"></path></clipPath></defs></symbol></defs><use xlink:href="#icon-great-place-to-work-mono"></use></svg>